{
  "accessors": [
    {
      "bufferView": 2,
      "componentType": 5126,
      "count": 65532,
      "max": [
        1.0965919494628906,
        8.713850975036621,
        0.6383020281791687
      ],
      "min": [
        -0.20497600734233856,
        7.11696195602417,
        -0.8258649706840515
      ],
      "type": "VEC3"
    },
    {
      "bufferView": 2,
      "byteOffset": 786384,
      "componentType": 5126,
      "count": 65532,
      "max": [
        0.9999985098838806,
        0.9999892711639404,
        0.9999785423278809
      ],
      "min": [
        -0.9999670386314392,
        -0.999936044216156,
        -0.9999800324440002
      ],
      "type": "VEC3"
    },
    {
      "bufferView": 1,
      "componentType": 5126,
      "count": 65532,
      "max": [
        0.8291069865226746,
        0.9996640086174011
      ],
      "min": [
        0.0,
        0.00011600000289035961
      ],
      "type": "VEC2"
    },
    {
      "bufferView": 0,
      "componentType": 5125,
      "count": 354669,
      "type": "SCALAR"
    },
    {
      "bufferView": 2,
      "byteOffset": 1572768,
      "componentType": 5126,
      "count": 59285,
      "max": [
        1.1161470413208008,
        8.760751724243164,
        0.6353219747543335
      ],
      "min": [
        -0.20230799913406372,
        7.371322154998779,
        -0.766389012336731
      ],
      "type": "VEC3"
    },
    {
      "bufferView": 2,
      "byteOffset": 2284188,
      "componentType": 5126,
      "count": 59285,
      "max": [
        0.9999985098838806,
        0.9998558759689331,
        0.9999986886978149
      ],
      "min": [
        -0.9998764395713806,
        -0.999755322933197,
        -0.999995231628418
      ],
      "type": "VEC3"
    },
    {
      "bufferView": 1,
      "byteOffset": 524256,
      "componentType": 5126,
      "count": 59285,
      "max": [
        0.8322349786758423,
        0.9938480257987976
      ],
      "min": [
        0.0,
        0.0005540000274777412
      ],
      "type": "VEC2"
    },
    {
      "bufferView": 0,
      "byteOffset": 1418676,
      "componentType": 5125,
      "count": 297957,
      "type": "SCALAR"
    }
  ],
  "asset": {
    "extras": {
      "author": "Digital Atlas of Ancient Life (https://sketchfab.com/DigitalAtlasOfAncientLife)",
      "license": "CC0-1.0 (http://creativecommons.org/publicdomain/zero/1.0/)",
      "source": "https://sketchfab.com/3d-models/mineral-fluorite-5ed87d4487be495aac0a86632eb3880c",
      "title": "Mineral: Fluorite"
    },
    "generator": "Sketchfab-13.74.0",
    "version": "2.0"
  },
  "bufferViews": [
    {
      "buffer": 0,
      "byteLength": 2610504,
      "name": "floatBufferViews",
      "target": 34963
    },
    {
      "buffer": 0,
      "byteLength": 998536,
      "byteOffset": 2610504,
      "byteStride": 8,
      "name": "floatBufferViews",
      "target": 34962
    },
    {
      "buffer": 0,
      "byteLength": 2995608,
      "byteOffset": 3609040,
      "byteStride": 12,
      "name": "floatBufferViews",
      "target": 34962
    }
  ],
  "buffers": [
    {
      "byteLength": 6604648,
      "uri": "scene.bin"
    }
  ],
  "extensionsUsed": [
    "KHR_materials_unlit"
  ],
  "images": [
    {
      "uri": "textures/Fluorite_baseColor.jpeg"
    }
  ],
  "materials": [
    {
      "doubleSided": true,
      "extensions": {
        "KHR_materials_unlit": {}
      },
      "name": "Fluorite",
      "pbrMetallicRoughness": {
        "baseColorTexture": {
          "index": 0
        },
        "metallicFactor": 0.0
      }
    }
  ],
  "meshes": [
    {
      "name": "Object_0",
      "primitives": [
        {
          "attributes": {
            "NORMAL": 1,
            "POSITION": 0,
            "TEXCOORD_0": 2
          },
          "indices": 3,
          "material": 0,
          "mode": 4
        }
      ]
    },
    {
      "name": "Object_1",
      "primitives": [
        {
          "attributes": {
            "NORMAL": 5,
            "POSITION": 4,
            "TEXCOORD_0": 6
          },
          "indices": 7,
          "material": 0,
          "mode": 4
        }
      ]
    }
  ],
  "nodes": [
    {
      "children": [
        1
      ],
      "matrix": [
        -0.33143672347068787,
        0.7863945960998534,
        0.5212803483009341,
        0.0,
        -0.7671889066696167,
        0.09695382416248335,
        -0.6340513825416565,
        0.0,
        -0.5491546988487244,
        -0.610068440437317,
        0.5711791515350341,
        0.0,
        0.0,
        0.0,
        0.0,
        1.0
      ],
      "name": "Sketchfab_model"
    },
    {
      "children": [
        2,
        3
      ],
      "name": "Fluorite.obj.cleaner.materialmerger.gles"
    },
    {
      "mesh": 0,
      "name": "Object_2"
    },
    {
      "mesh": 1,
      "name": "Object_3"
    }
  ],
  "samplers": [
    {
      "magFilter": 9729,
      "minFilter": 9987,
      "wrapS": 10497,
      "wrapT": 10497
    }
  ],
  "scene": 0,
  "scenes": [
    {
      "name": "Sketchfab_Scene",
      "nodes": [
        0
      ]
    }
  ],
  "textures": [
    {
      "sampler": 0,
      "source": 0
    }
  ]
}
