{
  "accessors": [
    {
      "bufferView": 2,
      "componentType": 5126,
      "count": 65532,
      "max": [
        3.8875908851623535,
        15.420870780944824,
        1.9029300212860107
      ],
      "min": [
        -4.038266181945801,
        10.011120796203613,
        -4.155961036682129
      ],
      "type": "VEC3"
    },
    {
      "bufferView": 2,
      "byteOffset": 786384,
      "componentType": 5126,
      "count": 65532,
      "max": [
        0.9999809861183167,
        0.999980628490448,
        0.9999740123748779
      ],
      "min": [
        -0.9999973773956299,
        -0.9999869465827942,
        -0.9999890923500061
      ],
      "type": "VEC3"
    },
    {
      "bufferView": 1,
      "componentType": 5126,
      "count": 65532,
      "max": [
        0.9999790191650391,
        0.989067018032074
      ],
      "min": [
        0.007946999743580818,
        6.000000212225132e-06
      ],
      "type": "VEC2"
    },
    {
      "bufferView": 0,
      "componentType": 5125,
      "count": 349905,
      "type": "SCALAR"
    },
    {
      "bufferView": 2,
      "byteOffset": 1572768,
      "componentType": 5126,
      "count": 32003,
      "max": [
        3.8875908851623535,
        15.418249130249023,
        1.8740930557250977
      ],
      "min": [
        -4.05425500869751,
        10.013897895812988,
        -4.119872093200684
      ],
      "type": "VEC3"
    },
    {
      "bufferView": 2,
      "byteOffset": 1956804,
      "componentType": 5126,
      "count": 32003,
      "max": [
        0.9999355673789978,
        0.9999833106994629,
        0.9997897744178772
      ],
      "min": [
        -0.9999904632568359,
        -0.9999869465827942,
        -0.999800980091095
      ],
      "type": "VEC3"
    },
    {
      "bufferView": 1,
      "byteOffset": 524256,
      "componentType": 5126,
      "count": 32003,
      "max": [
        0.999987006187439,
        0.9890549778938293
      ],
      "min": [
        7.999999979801942e-06,
        0.007046000100672245
      ],
      "type": "VEC2"
    },
    {
      "bufferView": 0,
      "byteOffset": 1399620,
      "componentType": 5125,
      "count": 124872,
      "type": "SCALAR"
    }
  ],
  "asset": {
    "extras": {
      "title": "Malachite"
    },
    "generator": "Sketchfab-16.32.0",
    "version": "2.0"
  },
  "bufferViews": [
    {
      "buffer": 0,
      "byteLength": 1899108,
      "name": "floatBufferViews",
      "target": 34963
    },
    {
      "buffer": 0,
      "byteLength": 780280,
      "byteOffset": 1899108,
      "byteStride": 8,
      "name": "floatBufferViews",
      "target": 34962
    },
    {
      "buffer": 0,
      "byteLength": 2340840,
      "byteOffset": 2679388,
      "byteStride": 12,
      "name": "floatBufferViews",
      "target": 34962
    }
  ],
  "buffers": [
    {
      "byteLength": 5020228,
      "uri": "scene.bin"
    }
  ],
  "extensionsUsed": [
    "KHR_materials_unlit"
  ],
  "images": [
    {
      "uri": "textures/MALIKITE_baseColor.jpeg"
    }
  ],
  "materials": [
    {
      "doubleSided": true,
      "extensions": {
        "KHR_materials_unlit": {}
      },
      "name": "MALIKITE",
      "pbrMetallicRoughness": {
        "baseColorTexture": {
          "index": 0
        },
        "metallicFactor": 0.0
      }
    }
  ],
  "meshes": [
    {
      "name": "Object_0",
      "primitives": [
        {
          "attributes": {
            "NORMAL": 1,
            "POSITION": 0,
            "TEXCOORD_0": 2
          },
          "indices": 3,
          "material": 0,
          "mode": 4
        }
      ]
    },
    {
      "name": "Object_1",
      "primitives": [
        {
          "attributes": {
            "NORMAL": 5,
            "POSITION": 4,
            "TEXCOORD_0": 6
          },
          "indices": 7,
          "material": 0,
          "mode": 4
        }
      ]
    }
  ],
  "nodes": [
    {
      "children": [
        1
      ],
      "matrix": [
        0.9986150860786438,
        0.05261118337512016,
        8.212582475213318e-18,
        0.0,
        0.03488140180706978,
        -0.6620852947235106,
        -0.7486162781715394,
        0.0,
        -0.0393855907022953,
        0.7475795149803163,
        -0.6630035042762755,
        0.0,
        0.0,
        0.0,
        0.0,
        1.0
      ],
      "name": "model"
    },
    {
      "children": [
        2,
        3
      ],
      "name": "MALIKITE.obj.cleaner.materialmerger.gles"
    },
    {
      "mesh": 0,
      "name": "Object_2"
    },
    {
      "mesh": 1,
      "name": "Object_3"
    }
  ],
  "samplers": [
    {
      "magFilter": 9729,
      "minFilter": 9987,
      "wrapS": 10497,
      "wrapT": 10497
    }
  ],
  "scene": 0,
  "scenes": [
    {
      "name": "Scene",
      "nodes": [
        0
      ]
    }
  ],
  "textures": [
    {
      "sampler": 0,
      "source": 0
    }
  ]
}
