{
  "accessors": [
    {
      "bufferView": 2,
      "componentType": 5126,
      "count": 65532,
      "max": [
        2.855217933654785,
        7.069468021392822,
        0.6494579911231995
      ],
      "min": [
        2.2026519775390625,
        6.543240070343018,
        0.05495699867606163
      ],
      "type": "VEC3"
    },
    {
      "bufferView": 2,
      "byteOffset": 786384,
      "componentType": 5126,
      "count": 65532,
      "max": [
        0.9998778104782104,
        0.9999638795852661,
        0.9996444582939148
      ],
      "min": [
        -0.9997196197509766,
        -0.9997621774673462,
        -0.9999808669090271
      ],
      "type": "VEC3"
    },
    {
      "bufferView": 1,
      "componentType": 5126,
      "count": 65532,
      "max": [
        0.8373870253562927,
        1.0
      ],
      "min": [
        0.004763000179082155,
        0.0
      ],
      "type": "VEC2"
    },
    {
      "bufferView": 0,
      "componentType": 5125,
      "count": 365433,
      "type": "SCALAR"
    },
    {
      "bufferView": 2,
      "byteOffset": 1572768,
      "componentType": 5126,
      "count": 42760,
      "max": [
        2.856722116470337,
        7.080362796783447,
        0.5150020122528076
      ],
      "min": [
        2.315476894378662,
        6.578769207000732,
        0.05463000014424324
      ],
      "type": "VEC3"
    },
    {
      "bufferView": 2,
      "byteOffset": 2085888,
      "componentType": 5126,
      "count": 42760,
      "max": [
        0.9997589588165283,
        0.9999931454658508,
        0.9996740818023682
      ],
      "min": [
        -0.9996570348739624,
        -0.999900758266449,
        -0.9999912977218628
      ],
      "type": "VEC3"
    },
    {
      "bufferView": 1,
      "byteOffset": 524256,
      "componentType": 5126,
      "count": 42760,
      "max": [
        0.8267310261726379,
        0.8938890099525452
      ],
      "min": [
        0.0007440000190399587,
        0.000539999979082495
      ],
      "type": "VEC2"
    },
    {
      "bufferView": 0,
      "byteOffset": 1461732,
      "componentType": 5125,
      "count": 218547,
      "type": "SCALAR"
    }
  ],
  "asset": {
    "extras": {
      "author": "Digital Atlas of Ancient Life (https://sketchfab.com/DigitalAtlasOfAncientLife)",
      "license": "CC0-1.0 (http://creativecommons.org/publicdomain/zero/1.0/)",
      "source": "https://sketchfab.com/3d-models/mineral-calcite-blue-858c88b7efd449b8b1f01ab6ae411c6e",
      "title": "Mineral: Calcite (blue)"
    },
    "generator": "Sketchfab-13.74.0",
    "version": "2.0"
  },
  "bufferViews": [
    {
      "buffer": 0,
      "byteLength": 2335920,
      "name": "floatBufferViews",
      "target": 34963
    },
    {
      "buffer": 0,
      "byteLength": 866336,
      "byteOffset": 2335920,
      "byteStride": 8,
      "name": "floatBufferViews",
      "target": 34962
    },
    {
      "buffer": 0,
      "byteLength": 2599008,
      "byteOffset": 3202256,
      "byteStride": 12,
      "name": "floatBufferViews",
      "target": 34962
    }
  ],
  "buffers": [
    {
      "byteLength": 5801264,
      "uri": "scene.bin"
    }
  ],
  "extensionsUsed": [
    "KHR_materials_unlit"
  ],
  "images": [
    {
      "uri": "textures/BlueCalcite_baseColor.jpeg"
    }
  ],
  "materials": [
    {
      "doubleSided": true,
      "extensions": {
        "KHR_materials_unlit": {}
      },
      "name": "BlueCalcite",
      "pbrMetallicRoughness": {
        "baseColorTexture": {
          "index": 0
        },
        "metallicFactor": 0.0
      }
    }
  ],
  "meshes": [
    {
      "name": "Object_0",
      "primitives": [
        {
          "attributes": {
            "NORMAL": 1,
            "POSITION": 0,
            "TEXCOORD_0": 2
          },
          "indices": 3,
          "material": 0,
          "mode": 4
        }
      ]
    },
    {
      "name": "Object_1",
      "primitives": [
        {
          "attributes": {
            "NORMAL": 5,
            "POSITION": 4,
            "TEXCOORD_0": 6
          },
          "indices": 7,
          "material": 0,
          "mode": 4
        }
      ]
    }
  ],
  "nodes": [
    {
      "children": [
        1
      ],
      "matrix": [
        0.5886651277542114,
        0.79744553565979,
        0.13249120116233842,
        0.0,
        0.6380536556243896,
        -0.3577174842357634,
        -0.6818546056747438,
        0.0,
        -0.4963475167751312,
        0.48592054843902605,
        -0.7193889021873473,
        0.0,
        0.0,
        0.0,
        0.0,
        1.0
      ],
      "name": "Sketchfab_model"
    },
    {
      "children": [
        2,
        3
      ],
      "name": "BlueCalcite.obj.cleaner.materialmerger.gles"
    },
    {
      "mesh": 0,
      "name": "Object_2"
    },
    {
      "mesh": 1,
      "name": "Object_3"
    }
  ],
  "samplers": [
    {
      "magFilter": 9729,
      "minFilter": 9987,
      "wrapS": 10497,
      "wrapT": 10497
    }
  ],
  "scene": 0,
  "scenes": [
    {
      "name": "Sketchfab_Scene",
      "nodes": [
        0
      ]
    }
  ],
  "textures": [
    {
      "sampler": 0,
      "source": 0
    }
  ]
}
