{
  "accessors": [
    {
      "bufferView": 2,
      "componentType": 5126,
      "count": 14513,
      "max": [
        0.02359447069466114,
        0.01319977454841137,
        0.02962285280227661
      ],
      "min": [
        -0.02359447069466114,
        -0.01319977454841137,
        -0.02962285280227661
      ],
      "type": "VEC3"
    },
    {
      "bufferView": 2,
      "byteOffset": 174156,
      "componentType": 5126,
      "count": 14513,
      "max": [
        0.9997293949127197,
        0.9999732971191406,
        0.999975860118866
      ],
      "min": [
        -0.9996644258499146,
        -0.9999995231628418,
        -0.999994158744812
      ],
      "type": "VEC3"
    },
    {
      "bufferView": 3,
      "componentType": 5126,
      "count": 14513,
      "max": [
        0.9999926686286926,
        0.9999998211860657,
        0.9993822574615479,
        1.0
      ],
      "min": [
        -0.9998976588249207,
        -0.9999908208847046,
        -0.9999417066574097,
        -1.0
      ],
      "type": "VEC4"
    },
    {
      "bufferView": 1,
      "componentType": 5126,
      "count": 14513,
      "max": [
        0.9811776876449585,
        0.9999967217445374
      ],
      "min": [
        0.00012470247747842222,
        0.0002521245914977044
      ],
      "type": "VEC2"
    },
    {
      "bufferView": 1,
      "byteOffset": 116104,
      "componentType": 5126,
      "count": 14513,
      "max": [
        0.9811776876449585,
        0.9999967217445374
      ],
      "min": [
        0.00012470247747842222,
        0.0002521245914977044
      ],
      "type": "VEC2"
    },
    {
      "bufferView": 1,
      "byteOffset": 232208,
      "componentType": 5126,
      "count": 14513,
      "max": [
        0.9811776876449585,
        0.9999967217445374
      ],
      "min": [
        0.00012470247747842222,
        0.0002521245914977044
      ],
      "type": "VEC2"
    },
    {
      "bufferView": 1,
      "byteOffset": 348312,
      "componentType": 5126,
      "count": 14513,
      "max": [
        0.9811776876449585,
        0.9999967217445374
      ],
      "min": [
        0.00012470247747842222,
        0.0002521245914977044
      ],
      "type": "VEC2"
    },
    {
      "bufferView": 1,
      "byteOffset": 464416,
      "componentType": 5126,
      "count": 14513,
      "max": [
        0.9811776876449585,
        0.9999967217445374
      ],
      "min": [
        0.00012470247747842222,
        0.0002521245914977044
      ],
      "type": "VEC2"
    },
    {
      "bufferView": 0,
      "componentType": 5125,
      "count": 80418,
      "type": "SCALAR"
    }
  ],
  "asset": {
    "extras": {
      "author": "Tom Goskar (https://sketchfab.com/tomgoskar)",
      "license": "CC-BY-NC-SA-4.0 (http://creativecommons.org/licenses/by-nc-sa/4.0/)",
      "source": "https://sketchfab.com/3d-models/lilac-danburite-mineral-specimen-2b095fef629f4a4b8502568353f89fd9",
      "title": "Lilac danburite mineral specimen"
    },
    "generator": "Sketchfab-12.67.0",
    "version": "2.0"
  },
  "bufferViews": [
    {
      "buffer": 0,
      "byteLength": 321672,
      "name": "floatBufferViews",
      "target": 34963
    },
    {
      "buffer": 0,
      "byteLength": 580520,
      "byteOffset": 321672,
      "byteStride": 8,
      "name": "floatBufferViews",
      "target": 34962
    },
    {
      "buffer": 0,
      "byteLength": 348312,
      "byteOffset": 902192,
      "byteStride": 12,
      "name": "floatBufferViews",
      "target": 34962
    },
    {
      "buffer": 0,
      "byteLength": 232208,
      "byteOffset": 1250504,
      "byteStride": 16,
      "name": "floatBufferViews",
      "target": 34962
    }
  ],
  "buffers": [
    {
      "byteLength": 1482712,
      "uri": "scene.bin"
    }
  ],
  "images": [
    {
      "uri": "textures/material_0_baseColor.jpeg"
    },
    {
      "uri": "textures/material_0_metallicRoughness.png"
    },
    {
      "uri": "textures/material_0_normal.jpeg"
    }
  ],
  "materials": [
    {
      "name": "material_0",
      "normalTexture": {
        "index": 2
      },
      "occlusionTexture": {
        "index": 1
      },
      "pbrMetallicRoughness": {
        "baseColorTexture": {
          "index": 0
        },
        "metallicFactor": 0.1658749762492875,
        "metallicRoughnessTexture": {
          "index": 1
        }
      }
    }
  ],
  "meshes": [
    {
      "name": "Object_0",
      "primitives": [
        {
          "attributes": {
            "NORMAL": 1,
            "POSITION": 0,
            "TANGENT": 2,
            "TEXCOORD_0": 3,
            "TEXCOORD_1": 4,
            "TEXCOORD_2": 5,
            "TEXCOORD_3": 6,
            "TEXCOORD_4": 7
          },
          "indices": 8,
          "material": 0,
          "mode": 4
        }
      ]
    }
  ],
  "nodes": [
    {
      "children": [
        1
      ],
      "matrix": [
        1.0,
        0.0,
        0.0,
        0.0,
        0.0,
        2.220446049250313e-16,
        -1.0,
        0.0,
        0.0,
        1.0,
        2.220446049250313e-16,
        0.0,
        0.0,
        0.0,
        0.0,
        1.0
      ],
      "name": "Sketchfab_model"
    },
    {
      "children": [
        2
      ],
      "name": "root"
    },
    {
      "children": [
        3
      ],
      "matrix": [
        1.0,
        0.0,
        0.0,
        0.0,
        0.0,
        2.220446049250313e-16,
        1.0,
        0.0,
        0.0,
        -1.0,
        2.220446049250313e-16,
        0.0,
        0.0,
        0.0,
        0.0,
        1.0
      ],
      "name": "GLTF_SceneRootNode"
    },
    {
      "children": [
        4
      ],
      "name": "_0"
    },
    {
      "mesh": 0,
      "name": "Object_4"
    }
  ],
  "samplers": [
    {
      "magFilter": 9729,
      "minFilter": 9987,
      "wrapS": 10497,
      "wrapT": 10497
    }
  ],
  "scene": 0,
  "scenes": [
    {
      "name": "Sketchfab_Scene",
      "nodes": [
        0
      ]
    }
  ],
  "textures": [
    {
      "sampler": 0,
      "source": 0
    },
    {
      "sampler": 0,
      "source": 1
    },
    {
      "sampler": 0,
      "source": 2
    }
  ]
}
