{
  "accessors": [
    {
      "bufferView": 2,
      "componentType": 5126,
      "count": 1629,
      "max": [
        15.600045204162598,
        8.29359245300293,
        29.13502311706543
      ],
      "min": [
        -14.06814193725586,
        -8.767867088317871,
        3.756706953048706
      ],
      "type": "VEC3"
    },
    {
      "bufferView": 2,
      "byteOffset": 19548,
      "componentType": 5126,
      "count": 1629,
      "max": [
        0.9982079863548279,
        0.9991097450256348,
        0.9950582385063171
      ],
      "min": [
        -0.9981406331062317,
        -0.9784680008888245,
        -0.9999698996543884
      ],
      "type": "VEC3"
    },
    {
      "bufferView": 3,
      "componentType": 5126,
      "count": 1629,
      "max": [
        0.9989573955535889,
        0.9939972758293152,
        0.9346014261245728,
        1.0
      ],
      "min": [
        -0.9103942513465881,
        -0.9704374074935913,
        -0.9909694194793701,
        1.0
      ],
      "type": "VEC4"
    },
    {
      "bufferView": 1,
      "componentType": 5126,
      "count": 1629,
      "max": [
        0.9905880093574524,
        0.9780409932136536
      ],
      "min": [
        0.009411999955773354,
        0.02195899933576584
      ],
      "type": "VEC2"
    },
    {
      "bufferView": 0,
      "componentType": 5125,
      "count": 8088,
      "type": "SCALAR"
    },
    {
      "bufferView": 2,
      "byteOffset": 39096,
      "componentType": 5126,
      "count": 6639,
      "max": [
        15.250320434570313,
        0.7560009956359863,
        29.13502311706543
      ],
      "min": [
        -14.045967102050781,
        -8.791302680969238,
        5.3310770988464355
      ],
      "type": "VEC3"
    },
    {
      "bufferView": 2,
      "byteOffset": 118764,
      "componentType": 5126,
      "count": 6639,
      "max": [
        0.9982848763465881,
        0.9959362149238586,
        0.99968022108078
      ],
      "min": [
        -0.9956573843955994,
        -0.9998796582221985,
        -0.9895339012145996
      ],
      "type": "VEC3"
    },
    {
      "bufferView": 3,
      "byteOffset": 26064,
      "componentType": 5126,
      "count": 6639,
      "max": [
        0.9997786283493042,
        0.999591588973999,
        0.9993792772293091,
        1.0
      ],
      "min": [
        -0.9985410571098328,
        -0.9938188195228577,
        -0.9995537996292114,
        -1.0
      ],
      "type": "VEC4"
    },
    {
      "bufferView": 1,
      "byteOffset": 13032,
      "componentType": 5126,
      "count": 6639,
      "max": [
        0.9489259719848633,
        0.9980469942092896
      ],
      "min": [
        0.0019529999699443579,
        0.0019529999699443579
      ],
      "type": "VEC2"
    },
    {
      "bufferView": 0,
      "byteOffset": 32352,
      "componentType": 5125,
      "count": 16974,
      "type": "SCALAR"
    }
  ],
  "asset": {
    "extras": {
      "author": "cedison (https://sketchfab.com/cedison)",
      "license": "CC-BY-4.0 (http://creativecommons.org/licenses/by/4.0/)",
      "source": "https://sketchfab.com/3d-models/blue-agate-geode-011affc99c7c47aab13dad7793e48363",
      "title": "Blue Agate Geode"
    },
    "generator": "Sketchfab-15.22.0",
    "version": "2.0"
  },
  "bufferViews": [
    {
      "buffer": 0,
      "byteLength": 100248,
      "name": "floatBufferViews",
      "target": 34963
    },
    {
      "buffer": 0,
      "byteLength": 66144,
      "byteOffset": 100248,
      "byteStride": 8,
      "name": "floatBufferViews",
      "target": 34962
    },
    {
      "buffer": 0,
      "byteLength": 198432,
      "byteOffset": 166392,
      "byteStride": 12,
      "name": "floatBufferViews",
      "target": 34962
    },
    {
      "buffer": 0,
      "byteLength": 132288,
      "byteOffset": 364824,
      "byteStride": 16,
      "name": "floatBufferViews",
      "target": 34962
    }
  ],
  "buffers": [
    {
      "byteLength": 497112,
      "uri": "scene.bin"
    }
  ],
  "extensionsRequired": [
    "KHR_materials_pbrSpecularGlossiness"
  ],
  "extensionsUsed": [
    "KHR_materials_pbrSpecularGlossiness"
  ],
  "images": [
    {
      "uri": "textures/Geode24_Lowpoly_17kTris2SG_diffuse.png"
    },
    {
      "uri": "textures/Geode24_Lowpoly_17kTris2SG_specularGlossiness.png"
    },
    {
      "uri": "textures/Geode24_Lowpoly_17kTris2SG_normal.png"
    },
    {
      "uri": "textures/Geode24_Lowpoly_17kTris2SG1_diffuse.png"
    },
    {
      "uri": "textures/Geode24_Lowpoly_17kTris2SG1_specularGlossiness.png"
    },
    {
      "uri": "textures/Geode24_Lowpoly_17kTris2SG1_emissive.png"
    },
    {
      "uri": "textures/Geode24_Lowpoly_17kTris2SG1_normal.png"
    },
    {
      "uri": "textures/Geode24_Lowpoly_17kTris2SG1_occlusion.png"
    }
  ],
  "materials": [
    {
      "doubleSided": true,
      "extensions": {
        "KHR_materials_pbrSpecularGlossiness": {
          "diffuseFactor": [
            1.0,
            1.0,
            1.0,
            1.0
          ],
          "diffuseTexture": {
            "index": 0
          },
          "glossinessFactor": 1.0,
          "specularFactor": [
            1.0,
            1.0,
            1.0
          ],
          "specularGlossinessTexture": {
            "index": 1
          }
        }
      },
      "name": "Geode24_Lowpoly_17kTris2SG",
      "normalTexture": {
        "index": 2
      }
    },
    {
      "doubleSided": true,
      "emissiveFactor": [
        1.0,
        1.0,
        1.0
      ],
      "emissiveTexture": {
        "index": 5
      },
      "extensions": {
        "KHR_materials_pbrSpecularGlossiness": {
          "diffuseFactor": [
            1.0,
            1.0,
            1.0,
            1.0
          ],
          "diffuseTexture": {
            "index": 3
          },
          "glossinessFactor": 1.0,
          "specularFactor": [
            1.0,
            1.0,
            1.0
          ],
          "specularGlossinessTexture": {
            "index": 4
          }
        }
      },
      "name": "Geode24_Lowpoly_17kTris2SG1",
      "normalTexture": {
        "index": 6
      },
      "occlusionTexture": {
        "index": 7,
        "strength": 0.7603832697394887
      }
    }
  ],
  "meshes": [
    {
      "name": "Object_0",
      "primitives": [
        {
          "attributes": {
            "NORMAL": 1,
            "POSITION": 0,
            "TANGENT": 2,
            "TEXCOORD_0": 3
          },
          "indices": 4,
          "material": 0,
          "mode": 4
        }
      ]
    },
    {
      "name": "Object_1",
      "primitives": [
        {
          "attributes": {
            "NORMAL": 6,
            "POSITION": 5,
            "TANGENT": 7,
            "TEXCOORD_0": 8
          },
          "indices": 9,
          "material": 1,
          "mode": 4
        }
      ]
    }
  ],
  "nodes": [
    {
      "children": [
        1
      ],
      "matrix": [
        1.0,
        0.0,
        0.0,
        0.0,
        0.0,
        2.220446049250313e-16,
        -1.0,
        0.0,
        0.0,
        1.0,
        2.220446049250313e-16,
        0.0,
        0.0,
        0.0,
        0.0,
        1.0
      ],
      "name": "Sketchfab_model"
    },
    {
      "children": [
        2,
        3
      ],
      "name": "SMGeode.obj.cleaner.materialmerger.gles"
    },
    {
      "mesh": 0,
      "name": "Object_2"
    },
    {
      "mesh": 1,
      "name": "Object_3"
    }
  ],
  "samplers": [
    {
      "magFilter": 9729,
      "minFilter": 9987,
      "wrapS": 10497,
      "wrapT": 10497
    }
  ],
  "scene": 0,
  "scenes": [
    {
      "name": "Sketchfab_Scene",
      "nodes": [
        0
      ]
    }
  ],
  "textures": [
    {
      "sampler": 0,
      "source": 0
    },
    {
      "sampler": 0,
      "source": 1
    },
    {
      "sampler": 0,
      "source": 2
    },
    {
      "sampler": 0,
      "source": 3
    },
    {
      "sampler": 0,
      "source": 4
    },
    {
      "sampler": 0,
      "source": 5
    },
    {
      "sampler": 0,
      "source": 6
    },
    {
      "sampler": 0,
      "source": 7
    }
  ]
}
